STARTFONT 2.1
COMMENT  
COMMENT  WARNING:  This bdf file was generated from an X server using
COMMENT  xbdfdump.  The resulting font is subject to the same copyright,
COMMENT  license, and trademark restrictions as the original font.  The
COMMENT  author and distributors of xbdfdump disclaim all liability for
COMMENT  misuse of the program or its output.
COMMENT  
FONT -phaisarn-ptthai-medium-r-normal--16-240-100-100-m-80-tis620-0
SIZE 16 100 100
FONTBOUNDINGBOX 25 21 -9 -4
STARTPROPERTIES 24
FOUNDRY "phaisarn"
FAMILY_NAME "ptthai"
WEIGHT_NAME "medium"
SLANT "r"
SETWIDTH_NAME "normal"
ADD_STYLE_NAME ""
PIXEL_SIZE 16
POINT_SIZE 240
RESOLUTION_X 100
RESOLUTION_Y 100
SPACING "m"
AVERAGE_WIDTH 20
CHARSET_REGISTRY "tis620"
CHARSET_ENCODING "0"
STRIKEOUT_ASCENT 16
STRIKEOUT_DESCENT 3
X_HEIGHT 8
FACE_NAME "Pt Thai Bitmap font for X-Windows"
COPYRIGHT "Copyright by Pt,TITech 1997"
WEIGHT 10
QUAD_WIDTH 9
DEFAULT_CHAR 32
FONT_ASCENT 17
FONT_DESCENT 5
ENDPROPERTIES
CHARS 183
STARTCHAR space
ENCODING 32
SWIDTH 360 0
DWIDTH 8 0
BBX 0 0 0 0
BITMAP
ENDCHAR
STARTCHAR exclam
ENCODING 33
SWIDTH 180 0
DWIDTH 4 0
BBX 4 13 0 0
BITMAP
00
60
60
60
60
60
60
60
60
00
00
60
60
ENDCHAR
STARTCHAR quotedbl
ENCODING 34
SWIDTH 315 0
DWIDTH 7 0
BBX 7 13 0 0
BITMAP
00
6c
6c
6c
6c
00
00
00
00
00
00
00
00
ENDCHAR
STARTCHAR numbersign
ENCODING 35
SWIDTH 495 0
DWIDTH 11 0
BBX 11 13 0 0
BITMAP
0000
0cc0
0cc0
0cc0
1980
3fc0
1980
1980
7fc0
1980
3300
3300
3300
ENDCHAR
STARTCHAR dollar
ENCODING 36
SWIDTH 450 0
DWIDTH 10 0
BBX 10 17 0 -2
BITMAP
0000
0400
0400
1e00
3780
6580
6400
3400
1e00
0b00
0980
6980
6980
3b00
1e00
0800
0800
ENDCHAR
STARTCHAR percent
ENCODING 37
SWIDTH 630 0
DWIDTH 14 0
BBX 14 13 0 0
BITMAP
0000
3840
6c40
4480
4480
6d00
3900
0270
02d8
0488
0488
08d8
0870
ENDCHAR
STARTCHAR ampersand
ENCODING 38
SWIDTH 540 0
DWIDTH 12 0
BBX 12 13 0 0
BITMAP
0000
1e00
3300
3300
3300
1a00
1c00
36c0
66c0
6380
6180
33c0
1e60
ENDCHAR
STARTCHAR apostrophe
ENCODING 39
SWIDTH 180 0
DWIDTH 4 0
BBX 4 13 0 0
BITMAP
00
60
60
60
60
00
00
00
00
00
00
00
00
ENDCHAR
STARTCHAR parenleft
ENCODING 40
SWIDTH 270 0
DWIDTH 6 0
BBX 6 16 0 -3
BITMAP
00
18
10
30
20
60
60
60
60
60
60
60
20
30
10
18
ENDCHAR
STARTCHAR parenright
ENCODING 41
SWIDTH 270 0
DWIDTH 6 0
BBX 6 16 0 -3
BITMAP
00
60
20
30
10
18
18
18
18
18
18
18
10
30
20
60
ENDCHAR
STARTCHAR asterisk
ENCODING 42
SWIDTH 315 0
DWIDTH 7 0
BBX 7 13 0 0
BITMAP
00
10
10
7c
38
28
44
00
00
00
00
00
00
ENDCHAR
STARTCHAR plus
ENCODING 43
SWIDTH 405 0
DWIDTH 9 0
BBX 8 11 0 0
BITMAP
00
08
08
08
7f
08
08
08
00
00
00
ENDCHAR
STARTCHAR comma
ENCODING 44
SWIDTH 180 0
DWIDTH 4 0
BBX 4 5 0 -2
BITMAP
00
60
60
20
40
ENDCHAR
STARTCHAR minus
ENCODING 45
SWIDTH 315 0
DWIDTH 7 0
BBX 7 6 0 0
BITMAP
00
7c
00
00
00
00
ENDCHAR
STARTCHAR period
ENCODING 46
SWIDTH 180 0
DWIDTH 4 0
BBX 4 3 0 0
BITMAP
00
60
60
ENDCHAR
STARTCHAR slash
ENCODING 47
SWIDTH 315 0
DWIDTH 7 0
BBX 7 15 0 -2
BITMAP
00
04
04
0c
08
08
18
10
10
30
20
20
60
40
40
ENDCHAR
STARTCHAR 0
ENCODING 48
SWIDTH 450 0
DWIDTH 10 0
BBX 10 13 0 0
BITMAP
0000
1e00
3300
6180
6180
6180
6180
6180
6180
6180
6180
3300
1e00
ENDCHAR
STARTCHAR 1
ENCODING 49
SWIDTH 315 0
DWIDTH 7 0
BBX 7 13 0 0
BITMAP
00
0c
1c
7c
0c
0c
0c
0c
0c
0c
0c
0c
0c
ENDCHAR
STARTCHAR 2
ENCODING 50
SWIDTH 450 0
DWIDTH 10 0
BBX 10 13 0 0
BITMAP
0000
1e00
3300
6180
6180
0180
0300
0600
0c00
1800
3000
6000
7f80
ENDCHAR
STARTCHAR 3
ENCODING 51
SWIDTH 450 0
DWIDTH 10 0
BBX 10 13 0 0
BITMAP
0000
1e00
3300
6180
6180
0300
0e00
0300
0180
6180
6180
3300
1e00
ENDCHAR
STARTCHAR 4
ENCODING 52
SWIDTH 450 0
DWIDTH 10 0
BBX 10 13 0 0
BITMAP
0000
0300
0700
0f00
0b00
1b00
1300
3300
6300
7f80
0300
0300
0300
ENDCHAR
STARTCHAR 5
ENCODING 53
SWIDTH 450 0
DWIDTH 10 0
BBX 10 13 0 0
BITMAP
0000
7f00
6000
6000
6000
7e00
6300
0180
0180
0180
6180
6300
3e00
ENDCHAR
STARTCHAR 6
ENCODING 54
SWIDTH 450 0
DWIDTH 10 0
BBX 10 13 0 0
BITMAP
0000
1e00
3300
6180
6000
6e00
7300
6180
6180
6180
6180
3300
1e00
ENDCHAR
STARTCHAR 7
ENCODING 55
SWIDTH 450 0
DWIDTH 10 0
BBX 10 13 0 0
BITMAP
0000
7f80
0180
0300
0300
0600
0600
0c00
0c00
0c00
1800
1800
1800
ENDCHAR
STARTCHAR 8
ENCODING 56
SWIDTH 450 0
DWIDTH 10 0
BBX 10 13 0 0
BITMAP
0000
1e00
3300
6180
6180
3300
1e00
3300
6180
6180
6180
3300
1e00
ENDCHAR
STARTCHAR 9
ENCODING 57
SWIDTH 450 0
DWIDTH 10 0
BBX 10 13 0 0
BITMAP
0000
1e00
3300
6180
6180
6180
6180
3380
1d80
0180
4180
6300
3e00
ENDCHAR
STARTCHAR colon
ENCODING 58
SWIDTH 180 0
DWIDTH 4 0
BBX 4 10 0 0
BITMAP
00
60
60
00
00
00
00
00
60
60
ENDCHAR
STARTCHAR semicolon
ENCODING 59
SWIDTH 180 0
DWIDTH 4 0
BBX 4 12 0 -2
BITMAP
00
60
60
00
00
00
00
00
60
60
20
40
ENDCHAR
STARTCHAR less
ENCODING 60
SWIDTH 450 0
DWIDTH 10 0
BBX 10 11 0 0
BITMAP
0000
0180
0600
1800
6000
6000
1800
0600
0180
0000
0000
ENDCHAR
STARTCHAR equal
ENCODING 61
SWIDTH 405 0
DWIDTH 9 0
BBX 8 9 0 0
BITMAP
00
7f
00
00
7f
00
00
00
00
ENDCHAR
STARTCHAR greater
ENCODING 62
SWIDTH 450 0
DWIDTH 10 0
BBX 10 11 0 0
BITMAP
0000
6000
1800
0600
0180
0180
0600
1800
6000
0000
0000
ENDCHAR
STARTCHAR question
ENCODING 63
SWIDTH 405 0
DWIDTH 9 0
BBX 8 13 0 0
BITMAP
00
3e
63
63
03
06
0c
0c
0c
00
00
0c
0c
ENDCHAR
STARTCHAR at
ENCODING 64
SWIDTH 765 0
DWIDTH 17 0
BBX 16 15 0 -2
BITMAP
0000
03f0
0c0c
1002
21da
2771
4631
4c31
4c61
4c62
4e66
27b8
2000
180c
07f0
ENDCHAR
STARTCHAR A
ENCODING 65
SWIDTH 585 0
DWIDTH 13 0
BBX 13 13 0 0
BITMAP
0000
0700
0700
0d80
0d80
0d80
18c0
18c0
3fe0
3060
3060
6030
6030
ENDCHAR
STARTCHAR B
ENCODING 66
SWIDTH 540 0
DWIDTH 12 0
BBX 12 13 0 0
BITMAP
0000
7f00
6180
60c0
60c0
6180
7f80
60c0
6060
6060
6060
60c0
7f00
ENDCHAR
STARTCHAR C
ENCODING 67
SWIDTH 540 0
DWIDTH 12 0
BBX 12 13 0 0
BITMAP
0000
0f80
38e0
3060
6020
6000
6000
6000
6000
6020
3060
38e0
0f80
ENDCHAR
STARTCHAR D
ENCODING 68
SWIDTH 585 0
DWIDTH 13 0
BBX 13 13 0 0
BITMAP
0000
7f80
60e0
6060
6030
6030
6030
6030
6030
6030
6060
60e0
7f80
ENDCHAR
STARTCHAR E
ENCODING 69
SWIDTH 495 0
DWIDTH 11 0
BBX 11 13 0 0
BITMAP
0000
7fc0
6000
6000
6000
6000
7f80
6000
6000
6000
6000
6000
7fc0
ENDCHAR
STARTCHAR F
ENCODING 70
SWIDTH 495 0
DWIDTH 11 0
BBX 11 13 0 0
BITMAP
0000
7fc0
6000
6000
6000
6000
7f80
6000
6000
6000
6000
6000
6000
ENDCHAR
STARTCHAR G
ENCODING 71
SWIDTH 585 0
DWIDTH 13 0
BBX 13 13 0 0
BITMAP
0000
0f80
38e0
3060
6020
6000
6000
61f0
6010
6030
3030
38f0
0f90
ENDCHAR
STARTCHAR H
ENCODING 72
SWIDTH 585 0
DWIDTH 13 0
BBX 13 13 0 0
BITMAP
0000
6030
6030
6030
6030
6030
7ff0
6030
6030
6030
6030
6030
6030
ENDCHAR
STARTCHAR I
ENCODING 73
SWIDTH 270 0
DWIDTH 6 0
BBX 6 13 0 0
BITMAP
00
78
30
30
30
30
30
30
30
30
30
30
78
ENDCHAR
STARTCHAR J
ENCODING 74
SWIDTH 360 0
DWIDTH 8 0
BBX 8 13 0 0
BITMAP
00
03
03
03
03
03
03
03
03
63
63
36
1c
ENDCHAR
STARTCHAR K
ENCODING 75
SWIDTH 495 0
DWIDTH 11 0
BBX 11 13 0 0
BITMAP
0000
60c0
6180
6300
6600
6c00
7c00
6600
6300
6300
6180
60c0
60c0
ENDCHAR
STARTCHAR L
ENCODING 76
SWIDTH 450 0
DWIDTH 10 0
BBX 10 13 0 0
BITMAP
0000
6000
6000
6000
6000
6000
6000
6000
6000
6000
6000
6000
7fc0
ENDCHAR
STARTCHAR M
ENCODING 77
SWIDTH 630 0
DWIDTH 14 0
BBX 14 13 0 0
BITMAP
0000
6018
6018
7038
7038
7878
7878
6cd8
6cd8
6798
6798
6318
6318
ENDCHAR
STARTCHAR N
ENCODING 78
SWIDTH 540 0
DWIDTH 12 0
BBX 12 13 0 0
BITMAP
0000
6060
7060
7060
7860
6c60
6e60
6760
6360
61e0
60e0
60e0
6060
ENDCHAR
STARTCHAR O
ENCODING 79
SWIDTH 585 0
DWIDTH 13 0
BBX 13 13 0 0
BITMAP
0000
0f80
38e0
3060
6030
6030
6030
6030
6030
6030
3060
38e0
0f80
ENDCHAR
STARTCHAR P
ENCODING 80
SWIDTH 495 0
DWIDTH 11 0
BBX 11 13 0 0
BITMAP
0000
7f00
6180
60c0
60c0
60c0
6180
7f00
6000
6000
6000
6000
6000
ENDCHAR
STARTCHAR Q
ENCODING 81
SWIDTH 585 0
DWIDTH 13 0
BBX 13 14 0 -1
BITMAP
0000
0f80
38e0
3060
6030
6030
6030
6030
6030
6330
31e0
38e0
0fb0
0010
ENDCHAR
STARTCHAR R
ENCODING 82
SWIDTH 540 0
DWIDTH 12 0
BBX 12 13 0 0
BITMAP
0000
7f80
60c0
6060
6060
6060
60c0
7f80
60c0
60c0
6060
6060
6060
ENDCHAR
STARTCHAR S
ENCODING 83
SWIDTH 495 0
DWIDTH 11 0
BBX 11 13 0 0
BITMAP
0000
1f00
31c0
60c0
6000
3800
1f00
0380
00c0
00c0
60c0
7180
1f00
ENDCHAR
STARTCHAR T
ENCODING 84
SWIDTH 540 0
DWIDTH 12 0
BBX 12 13 0 0
BITMAP
0000
7fe0
0600
0600
0600
0600
0600
0600
0600
0600
0600
0600
0600
ENDCHAR
STARTCHAR U
ENCODING 85
SWIDTH 540 0
DWIDTH 12 0
BBX 12 13 0 0
BITMAP
0000
6060
6060
6060
6060
6060
6060
6060
6060
6060
6060
30c0
1f80
ENDCHAR
STARTCHAR V
ENCODING 86
SWIDTH 585 0
DWIDTH 13 0
BBX 13 13 0 0
BITMAP
0000
6030
6030
3060
3060
3060
18c0
18c0
0d80
0d80
0d80
0700
0700
ENDCHAR
STARTCHAR W
ENCODING 87
SWIDTH 720 0
DWIDTH 16 0
BBX 16 13 0 0
BITMAP
0000
c183
c183
c3c3
63c6
6666
6666
366c
3c3c
3c3c
1818
1818
1818
ENDCHAR
STARTCHAR X
ENCODING 88
SWIDTH 585 0
DWIDTH 13 0
BBX 13 13 0 0
BITMAP
0000
6030
3060
18c0
18c0
0d80
0700
0700
0d80
18c0
18c0
3060
6030
ENDCHAR
STARTCHAR Y
ENCODING 89
SWIDTH 540 0
DWIDTH 12 0
BBX 12 13 0 0
BITMAP
0000
6060
6060
30c0
1980
1980
0f00
0600
0600
0600
0600
0600
0600
ENDCHAR
STARTCHAR Z
ENCODING 90
SWIDTH 495 0
DWIDTH 11 0
BBX 11 13 0 0
BITMAP
0000
7fc0
00c0
0180
0300
0300
0600
0c00
1800
1800
3000
6000
7fc0
ENDCHAR
STARTCHAR bracketleft
ENCODING 91
SWIDTH 270 0
DWIDTH 6 0
BBX 6 16 0 -3
BITMAP
00
78
60
60
60
60
60
60
60
60
60
60
60
60
60
78
ENDCHAR
STARTCHAR backslash
ENCODING 92
SWIDTH 315 0
DWIDTH 7 0
BBX 7 15 0 -2
BITMAP
00
40
40
60
20
20
30
10
10
18
08
08
0c
04
04
ENDCHAR
STARTCHAR bracketright
ENCODING 93
SWIDTH 270 0
DWIDTH 6 0
BBX 6 16 0 -3
BITMAP
00
78
18
18
18
18
18
18
18
18
18
18
18
18
18
78
ENDCHAR
STARTCHAR asciicircum
ENCODING 94
SWIDTH 405 0
DWIDTH 9 0
BBX 8 4 0 9
BITMAP
00
1c
36
63
ENDCHAR
STARTCHAR underscore
ENCODING 95
SWIDTH 495 0
DWIDTH 11 0
BBX 11 2 0 0
BITMAP
0000
7fc0
ENDCHAR
STARTCHAR grave
ENCODING 96
SWIDTH 270 0
DWIDTH 6 0
BBX 6 4 0 9
BITMAP
00
60
30
18
ENDCHAR
STARTCHAR a
ENCODING 97
SWIDTH 450 0
DWIDTH 10 0
BBX 10 9 0 0
BITMAP
0000
3e00
6300
0300
3f00
6300
6300
6300
3d80
ENDCHAR
STARTCHAR b
ENCODING 98
SWIDTH 405 0
DWIDTH 9 0
BBX 9 13 0 0
BITMAP
0000
6000
6000
6000
6000
7e00
6300
6300
6300
6300
6300
6300
7e00
ENDCHAR
STARTCHAR c
ENCODING 99
SWIDTH 450 0
DWIDTH 10 0
BBX 10 9 0 0
BITMAP
0000
3e00
6300
6300
6000
6000
6300
6300
3e00
ENDCHAR
STARTCHAR d
ENCODING 100
SWIDTH 405 0
DWIDTH 9 0
BBX 9 13 0 0
BITMAP
0000
0300
0300
0300
0300
3f00
6300
6300
6300
6300
6300
6300
3f00
ENDCHAR
STARTCHAR e
ENCODING 101
SWIDTH 405 0
DWIDTH 9 0
BBX 9 9 0 0
BITMAP
0000
3e00
6300
6300
7f00
6000
6100
6300
3e00
ENDCHAR
STARTCHAR f
ENCODING 102
SWIDTH 315 0
DWIDTH 7 0
BBX 7 13 0 0
BITMAP
00
1c
30
30
30
78
30
30
30
30
30
30
30
ENDCHAR
STARTCHAR g
ENCODING 103
SWIDTH 405 0
DWIDTH 9 0
BBX 9 13 0 -4
BITMAP
0000
3f00
6300
6300
6300
6300
6300
6300
3f00
0300
0300
6300
3e00
ENDCHAR
STARTCHAR h
ENCODING 104
SWIDTH 405 0
DWIDTH 9 0
BBX 9 13 0 0
BITMAP
0000
6000
6000
6000
6000
6e00
7300
6300
6300
6300
6300
6300
6300
ENDCHAR
STARTCHAR i
ENCODING 105
SWIDTH 180 0
DWIDTH 4 0
BBX 4 13 0 0
BITMAP
00
60
60
00
00
60
60
60
60
60
60
60
60
ENDCHAR
STARTCHAR j
ENCODING 106
SWIDTH 180 0
DWIDTH 4 0
BBX 4 17 0 -4
BITMAP
00
60
60
00
00
60
60
60
60
60
60
60
60
60
60
60
c0
ENDCHAR
STARTCHAR k
ENCODING 107
SWIDTH 405 0
DWIDTH 9 0
BBX 9 12 0 0
BITMAP
0000
6000
6000
6000
6300
6600
6c00
7800
7c00
6600
6600
6300
ENDCHAR
STARTCHAR l
ENCODING 108
SWIDTH 180 0
DWIDTH 4 0
BBX 4 13 0 0
BITMAP
00
60
60
60
60
60
60
60
60
60
60
60
60
ENDCHAR
STARTCHAR m
ENCODING 109
SWIDTH 630 0
DWIDTH 14 0
BBX 14 9 0 0
BITMAP
0000
6e70
7398
6318
6318
6318
6318
6318
6318
ENDCHAR
STARTCHAR n
ENCODING 110
SWIDTH 405 0
DWIDTH 9 0
BBX 9 9 0 0
BITMAP
0000
6e00
7300
6300
6300
6300
6300
6300
6300
ENDCHAR
STARTCHAR o
ENCODING 111
SWIDTH 405 0
DWIDTH 9 0
BBX 9 9 0 0
BITMAP
0000
3e00
6300
6300
6300
6300
6300
6300
3e00
ENDCHAR
STARTCHAR p
ENCODING 112
SWIDTH 405 0
DWIDTH 9 0
BBX 9 13 0 -4
BITMAP
0000
7e00
6300
6300
6300
6300
6300
6300
7e00
6000
6000
6000
6000
ENDCHAR
STARTCHAR q
ENCODING 113
SWIDTH 405 0
DWIDTH 9 0
BBX 9 13 0 -4
BITMAP
0000
3e00
6300
6300
6300
6300
6300
6300
3f00
0300
0300
0300
0300
ENDCHAR
STARTCHAR r
ENCODING 114
SWIDTH 315 0
DWIDTH 7 0
BBX 7 9 0 0
BITMAP
00
6c
70
60
60
60
60
60
60
ENDCHAR
STARTCHAR s
ENCODING 115
SWIDTH 405 0
DWIDTH 9 0
BBX 9 9 0 0
BITMAP
0000
3e00
6300
6000
7c00
1f00
0300
6300
3e00
ENDCHAR
STARTCHAR t
ENCODING 116
SWIDTH 315 0
DWIDTH 7 0
BBX 7 11 0 0
BITMAP
00
30
30
7c
30
30
30
30
30
30
1c
ENDCHAR
STARTCHAR u
ENCODING 117
SWIDTH 405 0
DWIDTH 9 0
BBX 9 9 0 0
BITMAP
0000
6300
6300
6300
6300
6300
6300
6700
3b00
ENDCHAR
STARTCHAR v
ENCODING 118
SWIDTH 450 0
DWIDTH 10 0
BBX 10 9 0 0
BITMAP
0000
6180
6180
3300
3300
1200
1e00
0c00
0c00
ENDCHAR
STARTCHAR w
ENCODING 119
SWIDTH 630 0
DWIDTH 14 0
BBX 14 9 0 0
BITMAP
0000
6318
6318
3330
37b0
34b0
1ce0
1860
0840
ENDCHAR
STARTCHAR x
ENCODING 120
SWIDTH 450 0
DWIDTH 10 0
BBX 10 9 0 0
BITMAP
0000
6180
3300
1e00
0c00
0c00
1e00
3300
6180
ENDCHAR
STARTCHAR y
ENCODING 121
SWIDTH 450 0
DWIDTH 10 0
BBX 10 13 0 -4
BITMAP
0000
6180
6180
3300
3300
1200
1e00
0c00
0c00
0c00
1800
1800
3000
ENDCHAR
STARTCHAR z
ENCODING 122
SWIDTH 405 0
DWIDTH 9 0
BBX 9 9 0 0
BITMAP
0000
7f00
0300
0600
0c00
1800
3000
6000
7f00
ENDCHAR
STARTCHAR braceleft
ENCODING 123
SWIDTH 360 0
DWIDTH 8 0
BBX 8 16 0 -3
BITMAP
00
0e
18
18
18
18
18
30
60
30
18
18
18
18
18
0e
ENDCHAR
STARTCHAR bar
ENCODING 124
SWIDTH 180 0
DWIDTH 4 0
BBX 4 17 0 -3
BITMAP
60
60
60
60
60
60
60
60
60
60
60
60
60
60
60
60
60
ENDCHAR
STARTCHAR braceright
ENCODING 125
SWIDTH 360 0
DWIDTH 8 0
BBX 8 16 0 -3
BITMAP
00
70
18
18
18
18
18
0c
06
0c
18
18
18
18
18
70
ENDCHAR
STARTCHAR asciitilde
ENCODING 126
SWIDTH 405 0
DWIDTH 9 0
BBX 8 3 0 9
BITMAP
00
3b
6e
ENDCHAR
STARTCHAR exclamdown
ENCODING 161
SWIDTH 405 0
DWIDTH 9 0
BBX 8 9 1 0
BITMAP
7e
c3
63
c3
c3
c3
c3
c3
c3
ENDCHAR
STARTCHAR cent
ENCODING 162
SWIDTH 405 0
DWIDTH 9 0
BBX 8 9 1 0
BITMAP
7b
df
7f
1b
33
33
33
33
7f
ENDCHAR
STARTCHAR sterling
ENCODING 163
SWIDTH 450 0
DWIDTH 10 0
BBX 10 9 1 0
BITMAP
7d80
d780
ef80
bd80
7980
1980
1980
1980
3f80
ENDCHAR
STARTCHAR currency
ENCODING 164
SWIDTH 405 0
DWIDTH 9 0
BBX 8 9 1 0
BITMAP
7e
c3
c3
db
fb
e3
63
63
63
ENDCHAR
STARTCHAR yen
ENCODING 165
SWIDTH 405 0
DWIDTH 9 0
BBX 8 9 1 0
BITMAP
7e
db
c3
db
fb
e3
63
63
63
ENDCHAR
STARTCHAR brokenbar
ENCODING 166
SWIDTH 495 0
DWIDTH 11 0
BBX 11 9 1 0
BITMAP
6cc0
d6c0
c6c0
acc0
6cc0
1cc0
2ec0
2dc0
19c0
ENDCHAR
STARTCHAR section
ENCODING 167
SWIDTH 315 0
DWIDTH 7 0
BBX 7 9 1 0
BITMAP
38
6c
3c
0c
cc
6c
3c
1c
0c
ENDCHAR
STARTCHAR diaeresis
ENCODING 168
SWIDTH 360 0
DWIDTH 8 0
BBX 8 9 1 0
BITMAP
7c
c6
06
36
6e
3e
0e
06
06
ENDCHAR
STARTCHAR copyright
ENCODING 169
SWIDTH 450 0
DWIDTH 10 0
BBX 10 9 1 0
BITMAP
7e00
c300
0300
7300
d300
7700
3e80
3b80
3300
ENDCHAR
STARTCHAR ordfeminine
ENCODING 170
SWIDTH 450 0
DWIDTH 10 0
BBX 10 11 1 0
BITMAP
0000
0180
7980
af00
6f80
1980
1980
1980
1980
1980
3f80
ENDCHAR
STARTCHAR guillemotleft
ENCODING 171
SWIDTH 450 0
DWIDTH 10 0
BBX 10 11 1 0
BITMAP
0000
0180
7d80
d700
e780
d980
7980
1980
1980
1980
3f80
ENDCHAR
STARTCHAR notsign
ENCODING 172
SWIDTH 540 0
DWIDTH 12 0
BBX 12 9 1 0
BITMAP
7c60
c660
6660
c660
c660
c660
ee60
b7e0
6ce0
ENDCHAR
STARTCHAR hyphen
ENCODING 173
SWIDTH 540 0
DWIDTH 12 0
BBX 12 12 1 -3
BITMAP
7c60
c660
6660
c660
c660
c660
e660
b660
6fe0
0360
0560
03c0
ENDCHAR
STARTCHAR registered
ENCODING 174
SWIDTH 450 0
DWIDTH 10 0
BBX 10 13 1 -4
BITMAP
1f00
3180
1980
3180
3180
3180
7180
b180
6180
0d80
1d80
2f80
1980
ENDCHAR
STARTCHAR macron
ENCODING 175
SWIDTH 450 0
DWIDTH 10 0
BBX 10 13 1 -4
BITMAP
1f00
3180
1980
3180
3180
3180
7180
b180
6180
1180
3580
5b80
2980
ENDCHAR
STARTCHAR degree
ENCODING 176
SWIDTH 450 0
DWIDTH 10 0
BBX 10 13 1 -4
BITMAP
3d80
6700
7e00
0300
1b00
2f00
1f00
0300
0300
1800
7b00
d700
6b00
ENDCHAR
STARTCHAR plusminus
ENCODING 177
SWIDTH 540 0
DWIDTH 12 0
BBX 12 9 1 0
BITMAP
7dc0
d7e0
ee60
bc60
6c60
0c60
0c60
0c60
0c60
ENDCHAR
STARTCHAR twosuperior
ENCODING 178
SWIDTH 585 0
DWIDTH 13 0
BBX 13 9 1 0
BITMAP
7e30
db30
c330
d330
eb30
db30
f730
6bf0
6670
ENDCHAR
STARTCHAR threesuperior
ENCODING 179
SWIDTH 585 0
DWIDTH 13 0
BBX 13 9 1 0
BITMAP
7c60
c660
6660
c660
c660
c660
e6f0
b750
6660
ENDCHAR
STARTCHAR acute
ENCODING 180
SWIDTH 405 0
DWIDTH 9 0
BBX 9 9 1 0
BITMAP
7e00
c300
c300
d300
eb00
db00
5b00
7300
6300
ENDCHAR
STARTCHAR mu
ENCODING 181
SWIDTH 405 0
DWIDTH 9 0
BBX 9 9 1 0
BITMAP
7e00
db00
c300
d300
eb00
db00
7b00
7300
6300
ENDCHAR
STARTCHAR paragraph
ENCODING 182
SWIDTH 405 0
DWIDTH 9 0
BBX 9 9 1 0
BITMAP
7e00
c300
6300
c300
c300
c300
e300
b300
6300
ENDCHAR
STARTCHAR periodcentered
ENCODING 183
SWIDTH 495 0
DWIDTH 11 0
BBX 11 9 1 0
BITMAP
6700
bd80
7980
3180
3180
3180
3180
3180
3180
ENDCHAR
STARTCHAR cedilla
ENCODING 184
SWIDTH 405 0
DWIDTH 9 0
BBX 9 9 1 0
BITMAP
3f00
6000
fe00
0300
3300
3300
3300
3300
7f00
ENDCHAR
STARTCHAR onesuperior
ENCODING 185
SWIDTH 495 0
DWIDTH 11 0
BBX 11 9 1 0
BITMAP
6300
b300
7300
3300
3300
3380
3740
3d40
3980
ENDCHAR
STARTCHAR masculine
ENCODING 186
SWIDTH 450 0
DWIDTH 10 0
BBX 10 9 1 0
BITMAP
6180
b180
7180
3180
3180
3180
3180
3180
7f80
ENDCHAR
STARTCHAR guillemotright
ENCODING 187
SWIDTH 450 0
DWIDTH 10 0
BBX 10 13 1 0
BITMAP
0180
0180
0180
0180
6180
b180
7180
3180
3180
3180
3180
3180
7f80
ENDCHAR
STARTCHAR onequarter
ENCODING 188
SWIDTH 405 0
DWIDTH 9 0
BBX 9 9 1 0
BITMAP
6300
d300
e300
c300
c300
db00
ff00
e700
c300
ENDCHAR
STARTCHAR onehalf
ENCODING 189
SWIDTH 405 0
DWIDTH 9 0
BBX 9 13 1 0
BITMAP
0300
0300
0300
0300
6300
d300
e300
c300
c300
db00
ff00
e700
c300
ENDCHAR
STARTCHAR threequarters
ENCODING 190
SWIDTH 450 0
DWIDTH 10 0
BBX 10 9 1 0
BITMAP
6180
b180
7180
3580
3580
3f80
3b80
3180
3180
ENDCHAR
STARTCHAR questiondown
ENCODING 191
SWIDTH 450 0
DWIDTH 10 0
BBX 10 13 1 0
BITMAP
0180
0180
0180
0180
6180
b180
7180
3580
3580
3f80
3b80
3180
3180
ENDCHAR
STARTCHAR Agrave
ENCODING 192
SWIDTH 450 0
DWIDTH 10 0
BBX 10 9 1 0
BITMAP
1f00
3180
1980
3180
3180
3180
7180
b180
6180
ENDCHAR
STARTCHAR Aacute
ENCODING 193
SWIDTH 450 0
DWIDTH 10 0
BBX 10 9 1 0
BITMAP
6180
b180
7180
3180
3180
7980
bd80
b380
7180
ENDCHAR
STARTCHAR Acircumflex
ENCODING 194
SWIDTH 360 0
DWIDTH 8 0
BBX 8 9 1 0
BITMAP
66
b6
e6
c6
76
c6
c6
c6
fe
ENDCHAR
STARTCHAR Atilde
ENCODING 195
SWIDTH 360 0
DWIDTH 8 0
BBX 7 9 1 0
BITMAP
7c
c0
f8
0c
0c
0c
1c
2c
18
ENDCHAR
STARTCHAR Adiaeresis
ENCODING 196
SWIDTH 405 0
DWIDTH 9 0
BBX 9 12 1 -3
BITMAP
7e00
c300
6300
c300
c300
c300
e300
b300
6300
0300
0300
0300
ENDCHAR
STARTCHAR Aring
ENCODING 197
SWIDTH 360 0
DWIDTH 8 0
BBX 8 9 1 0
BITMAP
7c
c6
06
76
ce
c6
e6
d6
66
ENDCHAR
STARTCHAR AE
ENCODING 198
SWIDTH 450 0
DWIDTH 10 0
BBX 10 12 1 -3
BITMAP
1f00
3180
1980
3180
3180
3180
7180
b180
6180
0180
0180
0180
ENDCHAR
STARTCHAR Ccedilla
ENCODING 199
SWIDTH 360 0
DWIDTH 8 0
BBX 8 9 1 0
BITMAP
7c
c6
06
06
06
06
0e
16
0c
ENDCHAR
STARTCHAR Egrave
ENCODING 200
SWIDTH 405 0
DWIDTH 9 0
BBX 9 10 1 0
BITMAP
0300
7f00
c600
c300
db00
fb00
e300
6300
6300
6300
ENDCHAR
STARTCHAR Eacute
ENCODING 201
SWIDTH 495 0
DWIDTH 11 0
BBX 11 9 1 0
BITMAP
6180
b180
7180
3580
37c0
3180
3180
3180
7f80
ENDCHAR
STARTCHAR Ecircumflex
ENCODING 202
SWIDTH 360 0
DWIDTH 8 0
BBX 8 10 1 0
BITMAP
06
7c
ce
16
76
ce
c6
e6
d6
66
ENDCHAR
STARTCHAR Ediaeresis
ENCODING 203
SWIDTH 450 0
DWIDTH 10 0
BBX 10 9 1 0
BITMAP
6300
b680
7300
3780
3d80
3980
3180
3180
3180
ENDCHAR
STARTCHAR Igrave
ENCODING 204
SWIDTH 495 0
DWIDTH 11 0
BBX 11 10 1 0
BITMAP
00c0
61c0
b180
70c0
36c0
36c0
3fc0
39c0
30c0
30c0
ENDCHAR
STARTCHAR Iacute
ENCODING 205
SWIDTH 360 0
DWIDTH 8 0
BBX 8 9 1 0
BITMAP
7c
c6
06
66
d6
e6
c6
c6
fe
ENDCHAR
STARTCHAR Icircumflex
ENCODING 206
SWIDTH 450 0
DWIDTH 10 0
BBX 10 10 1 0
BITMAP
0180
7f00
c300
7f00
3300
6b00
7300
6300
6300
7f00
ENDCHAR
STARTCHAR Idiaeresis
ENCODING 207
SWIDTH 405 0
DWIDTH 9 0
BBX 9 10 0 0
BITMAP
0000
3300
6b00
7300
6300
3f00
0300
0300
0300
0600
ENDCHAR
STARTCHAR ETH
ENCODING 208
SWIDTH 405 0
DWIDTH 9 0
BBX 8 10 0 0
BITMAP
00
30
5b
3e
00
00
00
30
5b
3e
ENDCHAR
STARTCHAR Ntilde
ENCODING 209
SWIDTH 0 0
DWIDTH 0 0
BBX 8 3 -8 10
BITMAP
20
53
3e
ENDCHAR
STARTCHAR Ograve
ENCODING 210
SWIDTH 360 0
DWIDTH 8 0
BBX 8 9 0 0
BITMAP
3c
66
06
06
06
06
06
06
06
ENDCHAR
STARTCHAR Oacute
ENCODING 211
SWIDTH 360 0
DWIDTH 8 0
BBX 14 14 -6 0
BITMAP
0000
3800
4800
7000
0000
00f0
0198
0018
0018
0018
0018
0018
0018
0018
ENDCHAR
STARTCHAR Ocircumflex
ENCODING 212
SWIDTH 0 0
DWIDTH 0 0
BBX 8 3 -9 10
BITMAP
3e
63
7f
ENDCHAR
STARTCHAR Otilde
ENCODING 213
SWIDTH 0 0
DWIDTH 0 0
BBX 8 3 -9 10
BITMAP
3b
67
7f
ENDCHAR
STARTCHAR Odiaeresis
ENCODING 214
SWIDTH 0 0
DWIDTH 0 0
BBX 9 4 -9 10
BITMAP
0180
3e80
6380
7f00
ENDCHAR
STARTCHAR multiply
ENCODING 215
SWIDTH 0 0
DWIDTH 0 0
BBX 9 4 -9 10
BITMAP
0680
3e80
6380
7f80
ENDCHAR
STARTCHAR Ooblique
ENCODING 216
SWIDTH 0 0
DWIDTH 0 0
BBX 5 4 -5 -4
BITMAP
60
b0
70
30
ENDCHAR
STARTCHAR Ugrave
ENCODING 217
SWIDTH 0 0
DWIDTH 0 0
BBX 8 4 -8 -4
BITMAP
42
b6
76
3e
ENDCHAR
STARTCHAR Uacute
ENCODING 218
SWIDTH 0 0
DWIDTH 0 0
BBX 5 3 -5 -3
BITMAP
00
c0
c0
ENDCHAR
STARTCHAR Udiaeresis
ENCODING 220
SWIDTH 360 0
DWIDTH 8 0
BBX 8 2 0 -1
BITMAP
7e
42
ENDCHAR
STARTCHAR ssharp
ENCODING 223
SWIDTH 540 0
DWIDTH 12 0
BBX 12 15 0 0
BITMAP
0000
0400
7f00
6580
64c0
64c0
6580
7f80
64c0
64c0
64c0
64c0
64c0
7f80
0400
ENDCHAR
STARTCHAR agrave
ENCODING 224
SWIDTH 225 0
DWIDTH 5 0
BBX 5 10 0 0
BITMAP
00
60
60
60
60
60
60
70
68
30
ENDCHAR
STARTCHAR aacute
ENCODING 225
SWIDTH 450 0
DWIDTH 10 0
BBX 10 10 0 0
BITMAP
0000
6300
6300
6300
6300
6300
6300
7380
6b40
3180
ENDCHAR
STARTCHAR acircumflex
ENCODING 226
SWIDTH 315 0
DWIDTH 7 0
BBX 7 16 0 0
BITMAP
00
7c
e0
30
18
18
18
18
18
18
18
18
18
1c
1a
0c
ENDCHAR
STARTCHAR atilde
ENCODING 227
SWIDTH 315 0
DWIDTH 7 0
BBX 7 16 0 0
BITMAP
00
70
d8
d8
b8
58
18
18
18
18
18
18
18
1c
1a
0c
ENDCHAR
STARTCHAR adiaeresis
ENCODING 228
SWIDTH 315 0
DWIDTH 7 0
BBX 7 16 0 0
BITMAP
00
98
f8
58
18
18
18
18
18
18
18
18
18
1c
1a
0c
ENDCHAR
STARTCHAR aring
ENCODING 229
SWIDTH 360 0
DWIDTH 8 0
BBX 8 13 0 -3
BITMAP
00
3c
66
06
06
06
06
06
06
06
06
06
06
ENDCHAR
STARTCHAR ae
ENCODING 230
SWIDTH 405 0
DWIDTH 9 0
BBX 8 13 0 -3
BITMAP
00
36
6b
63
73
6b
33
03
03
03
03
03
03
ENDCHAR
STARTCHAR ccedilla
ENCODING 231
SWIDTH 0 0
DWIDTH 0 0
BBX 8 6 -8 10
BITMAP
00
03
3e
60
66
7e
ENDCHAR
STARTCHAR egrave
ENCODING 232
SWIDTH 0 0
DWIDTH 0 0
BBX 3 3 -3 14
BITMAP
00
c0
c0
ENDCHAR
STARTCHAR eacute
ENCODING 233
SWIDTH 0 0
DWIDTH 0 0
BBX 6 4 -6 13
BITMAP
00
ec
78
70
ENDCHAR
STARTCHAR ecircumflex
ENCODING 234
SWIDTH 0 0
DWIDTH 0 0
BBX 7 4 -7 13
BITMAP
00
fa
de
dc
ENDCHAR
STARTCHAR ediaeresis
ENCODING 235
SWIDTH 0 0
DWIDTH 0 0
BBX 4 4 -4 13
BITMAP
00
60
f0
60
ENDCHAR
STARTCHAR igrave
ENCODING 236
SWIDTH 0 0
DWIDTH 0 0
BBX 4 4 -4 13
BITMAP
00
30
60
70
ENDCHAR
STARTCHAR iacute
ENCODING 237
SWIDTH 0 0
DWIDTH 0 0
BBX 6 4 -6 10
BITMAP
00
38
48
70
ENDCHAR
STARTCHAR icircumflex
ENCODING 238
SWIDTH 0 0
DWIDTH 0 0
BBX 8 6 -8 10
BITMAP
00
3c
60
38
60
3c
ENDCHAR
STARTCHAR idiaeresis
ENCODING 239
SWIDTH 450 0
DWIDTH 10 0
BBX 10 9 0 0
BITMAP
0000
3f00
6180
6180
6d80
6d80
6180
6180
3f00
ENDCHAR
STARTCHAR eth
ENCODING 240
SWIDTH 450 0
DWIDTH 10 0
BBX 10 8 0 0
BITMAP
0000
1e00
3300
6180
6180
6180
3300
1e00
ENDCHAR
STARTCHAR ntilde
ENCODING 241
SWIDTH 450 0
DWIDTH 10 0
BBX 10 9 0 -1
BITMAP
0000
1e00
3300
6180
7980
7580
3980
0300
0600
ENDCHAR
STARTCHAR ograve
ENCODING 242
SWIDTH 540 0
DWIDTH 12 0
BBX 12 12 0 0
BITMAP
0000
c000
6000
6000
6000
66c0
6d60
6e60
6d60
6660
6060
3fe0
ENDCHAR
STARTCHAR oacute
ENCODING 243
SWIDTH 495 0
DWIDTH 11 0
BBX 11 8 0 0
BITMAP
0000
3b80
6ec0
64c0
60c0
70c0
68c0
30c0
ENDCHAR
STARTCHAR ocircumflex
ENCODING 244
SWIDTH 540 0
DWIDTH 12 0
BBX 12 11 0 0
BITMAP
0000
0060
0060
00c0
3f80
6000
6600
6b00
6e00
6700
3dc0
ENDCHAR
STARTCHAR otilde
ENCODING 245
SWIDTH 540 0
DWIDTH 12 0
BBX 12 11 0 0
BITMAP
0000
0060
0660
0dc0
3f80
6000
6600
6b00
6e00
6700
3dc0
ENDCHAR
STARTCHAR odiaeresis
ENCODING 246
SWIDTH 405 0
DWIDTH 9 0
BBX 9 11 0 0
BITMAP
0000
c000
6000
6000
7e00
6300
0300
3300
6b00
7300
3e00
ENDCHAR
STARTCHAR division
ENCODING 247
SWIDTH 540 0
DWIDTH 12 0
BBX 12 11 0 0
BITMAP
0000
0020
0060
0060
3e60
6b60
6b60
6360
7360
6b40
3380
ENDCHAR
STARTCHAR oslash
ENCODING 248
SWIDTH 495 0
DWIDTH 11 0
BBX 11 11 0 0
BITMAP
0000
00c0
00c0
00c0
3f80
6000
6000
6180
6b40
79c0
3780
ENDCHAR
STARTCHAR ugrave
ENCODING 249
SWIDTH 495 0
DWIDTH 11 0
BBX 11 11 0 0
BITMAP
0000
0060
0060
01c0
3f80
6600
6300
6180
7980
34c0
1840
ENDCHAR
STARTCHAR uacute
ENCODING 250
SWIDTH 540 0
DWIDTH 12 0
BBX 12 10 0 0
BITMAP
0000
3360
6b60
7360
6360
3f60
0360
0360
0360
0360
ENDCHAR
STARTCHAR ucircumflex
ENCODING 251
SWIDTH 585 0
DWIDTH 13 0
BBX 13 8 0 0
BITMAP
0000
3800
7500
6b70
63c0
6680
3c00
0000
ENDCHAR
ENDFONT
